<?xml version="1.0" standalone="no"?>
<!DOCTYPE svg PUBLIC "-//W3C//DTD SVG 20010904//EN"
 "http://www.w3.org/TR/2001/REC-SVG-20010904/DTD/svg10.dtd">
<svg version="1.0" xmlns="http://www.w3.org/2000/svg"
 width="387.000000pt" height="387.000000pt" viewBox="0 0 387.000000 387.000000"
 preserveAspectRatio="xMidYMid meet">
<metadata>
Created by potrace 1.11, written by Peter Selinger 2001-2013
</metadata>
<g transform="translate(0.000000,387.000000) scale(0.100000,-0.100000)"
fill="#000000" stroke="none">
<path d="M1798 3865 c-2 -1 -34 -6 -73 -9 -187 -16 -441 -89 -623 -177 -600
-292 -1006 -857 -1086 -1514 -13 -108 -15 -394 -2 -465 3 -19 8 -51 11 -70 2
-19 7 -46 10 -60 3 -14 7 -36 10 -50 8 -42 62 -220 88 -290 143 -383 478 -769
845 -976 99 -56 232 -118 300 -140 26 -8 56 -19 67 -24 28 -11 126 -36 215
-54 244 -49 517 -46 795 9 52 10 168 44 225 66 30 11 66 24 80 29 43 13 142
62 240 118 317 182 607 490 767 813 53 109 112 257 128 325 3 11 11 46 20 79
8 33 17 78 21 100 3 22 7 42 9 45 10 17 20 174 20 320 -1 202 -4 235 -51 460
-6 33 -62 205 -81 250 -188 454 -527 816 -965 1031 -146 71 -387 145 -538 165
-30 4 -66 9 -80 11 -31 5 -347 12 -352 8z"/>
</g>
</svg>
